<?xml version="1.0" encoding="iso-8859-1"?>
<!-- Generator: Adobe Illustrator 19.0.0, SVG Export Plug-In . SVG Version: 6.00 Build 0)  -->
<svg version="1.1" id="Capa_1" xmlns="http://www.w3.org/2000/svg" xmlns:xlink="http://www.w3.org/1999/xlink" x="0px" y="0px"
	 viewBox="0 0 512 512" style="enable-background:new 0 0 512 512;" xml:space="preserve">
<polygon style="fill:#4DCFE0;" points="262.514,319.186 261.863,319.837 164.804,347.196 192.163,250.137 192.814,249.486 "/>
<rect x="179.977" y="120.319" transform="matrix(-0.7071 0.7071 -0.7071 -0.7071 704.538 47.1701)" style="fill:#00BBD3;" width="325.045" height="98.36"/>
<g>
	<path style="fill:#3A2C51;" d="M476.824,512H19.542C8.468,512,0,503.532,0,492.458V35.176c0-11.074,8.468-19.542,19.542-19.542
		h170.667c11.074,0,19.542,8.468,19.542,19.542s-8.468,19.542-19.542,19.542H39.084v418.198h418.198V321.791
		c0-11.074,8.468-19.542,19.542-19.542c11.074,0,19.542,8.468,19.542,19.542v170.667C496.366,503.532,487.898,512,476.824,512z"/>
	<path style="fill:#3A2C51;" d="M506.137,75.562l-69.7-69.7c-7.817-7.817-20.193-7.817-27.359,0L179.135,235.807l0,0l-0.651,0.651
		c-2.606,2.606-3.908,5.211-5.211,8.468l-27.359,97.059c-1.954,6.514,0,14.331,5.211,18.891c3.908,3.908,8.468,5.863,13.679,5.863
		c1.954,0,3.257,0,5.211-0.651l97.059-27.359c3.257-0.651,5.863-2.606,8.468-5.211l230.595-230.595
		c3.908-3.908,5.863-8.468,5.863-13.679S510.046,78.819,506.137,75.562z M201.934,286.616l23.45,23.45l-32.57,9.12L201.934,286.616z
		 M262.514,291.827l-42.341-42.341L422.758,46.901l42.341,42.341L262.514,291.827z"/>
</g>
<g>
</g>
<g>
</g>
<g>
</g>
<g>
</g>
<g>
</g>
<g>
</g>
<g>
</g>
<g>
</g>
<g>
</g>
<g>
</g>
<g>
</g>
<g>
</g>
<g>
</g>
<g>
</g>
<g>
</g>
</svg>
