<?xml version="1.0" encoding="iso-8859-1"?>
<!-- Generator: Adobe Illustrator 19.0.0, SVG Export Plug-In . SVG Version: 6.00 Build 0)  -->
<svg version="1.1" id="Capa_1" xmlns="http://www.w3.org/2000/svg" xmlns:xlink="http://www.w3.org/1999/xlink" x="0px" y="0px"
	 viewBox="0 0 512 512" style="enable-background:new 0 0 512 512;" xml:space="preserve">
<g>
	<g transform="translate(1 1)">
		<path style="fill:#A4C2F7;" d="M75.8,7.533h401.067c14.138,0,25.6,11.462,25.6,25.6v443.733c0,14.138-11.462,25.6-25.6,25.6H75.8
			c-14.138,0-25.6-11.462-25.6-25.6V33.133C50.2,18.995,61.662,7.533,75.8,7.533z"/>
		<path style="fill:#FFFFFF;" d="M33.133,7.533H434.2c14.138,0,25.6,11.462,25.6,25.6v443.733c0,14.138-11.462,25.6-25.6,25.6
			H33.133c-14.138,0-25.6-11.462-25.6-25.6V33.133C7.533,18.995,18.995,7.533,33.133,7.533z"/>
		<path style="fill:#E3E7F2;" d="M58.733,7.533h392.533c14.138,0,25.6,11.462,25.6,25.6v443.733c0,14.138-11.462,25.6-25.6,25.6
			H58.733c-14.138,0-25.6-11.462-25.6-25.6V33.133C33.133,18.995,44.595,7.533,58.733,7.533z"/>
		<g>
			<path style="fill:#A4C2F7;" d="M383,349.055v153.412H127V349.055c0.001-1.804,0.341-3.591,1.001-5.269L239.043,60.474
				C241.888,54.217,248.127,50.2,255,50.2c6.873,0,13.112,4.017,15.957,10.274l111.041,283.312
				C382.659,345.464,382.999,347.251,383,349.055z"/>
			<path style="fill:#A4C2F7;" d="M383,362.947v139.52h-76.8V362.861c0-5.547,0.171-11.093,0.512-16.555
				c1.621-24.832,7.68-46.763,25.088-46.763s40.704,21.931,48.469,46.763C382.053,351.674,382.975,357.291,383,362.947z"/>
		</g>
		<path style="fill:#E3E7F2;" d="M383,349.037v13.909c-0.025-5.656-0.947-11.273-2.731-16.64
			c-7.765-24.832-31.061-46.763-48.469-46.763s-23.467,21.931-25.088,46.763c-0.341,5.461-0.512,11.008-0.512,16.555v10.837
			c0.026-9.249-1.179-18.461-3.584-27.392c-7.509-27.477-26.027-46.763-47.616-46.763s-40.107,19.285-47.616,46.763
			c-2.405,8.931-3.61,18.143-3.584,27.392v-12.117c0-5.12-0.171-10.24-0.512-15.275c-1.621-24.832-7.68-46.763-25.088-46.763
			s-40.704,21.931-48.469,46.763c-1.784,5.338-2.706,10.926-2.731,16.555v-13.824c0.001-1.813,0.349-3.608,1.024-5.291
			l78.507-200.363h96.939l78.507,200.363C382.651,345.429,382.999,347.225,383,349.037L383,349.037z"/>
		<g>
			<path style="fill:#A4C2F7;" d="M303.469,143.384h-96.939l32.512-82.944C241.902,54.2,248.136,50.2,255,50.2
				c6.864,0,13.098,4.001,15.957,10.24L303.469,143.384z"/>
			<path style="fill:#A4C2F7;" d="M203.8,361.581v140.885H127V362.861c0.025-5.628,0.947-11.217,2.731-16.555
				c7.765-24.832,31.061-46.763,48.469-46.763s23.467,21.931,25.088,46.763C203.629,351.341,203.8,356.461,203.8,361.581z"/>
			<path style="fill:#A4C2F7;" d="M383,349.037v13.909c-0.025-5.656-0.947-11.273-2.731-16.64
				c-6.656-21.248-24.661-40.448-40.704-45.397l-61.696-157.525h25.6l78.507,200.363C382.651,345.429,382.999,347.225,383,349.037
				L383,349.037z"/>
		</g>
		<path style="fill:#7FACFA;" d="M303.469,143.384H280.6L248.088,60.44c-0.951-2.453-2.506-4.625-4.523-6.315
			c4.259-3.476,9.886-4.788,15.243-3.553c5.357,1.235,9.842,4.878,12.149,9.867L303.469,143.384z"/>
	</g>
	<g>
		<path style="fill:#428DFF;" d="M477.867,0H34.133C15.291,0.022,0.022,15.291,0,34.133v59.733c0,4.713,3.821,8.533,8.533,8.533
			s8.533-3.821,8.533-8.533V34.133c0.009-9.422,7.645-17.057,17.067-17.067h443.733c9.422,0.009,17.057,7.645,17.067,17.067v443.733
			c-0.009,9.422-7.645,17.057-17.067,17.067h-85.333V350.054c0.002-2.868-0.536-5.711-1.587-8.379l-78.592-200.52l-0.066-0.169
			l-32.384-82.624c-4.128-9.529-13.52-15.696-23.904-15.696c-10.384,0-19.777,6.167-23.904,15.696l-32.382,82.621l-0.069,0.175
			l-78.587,200.513c-1.054,2.669-1.594,5.514-1.592,8.384v144.879H34.133c-9.422-0.009-17.057-7.645-17.067-17.067V162.133
			c0-4.713-3.821-8.533-8.533-8.533S0,157.421,0,162.133v315.733C0.022,496.709,15.291,511.978,34.133,512h443.733
			c18.842-0.022,34.112-15.291,34.133-34.133V34.133C511.978,15.291,496.709,0.022,477.867,0z M302.683,322.77
			c-8.814-17.981-26.684-29.771-46.683-30.8c-19.998,1.029-37.867,12.817-46.681,30.797c-5.125-20.454-15.207-30.797-30.119-30.797
			c-8.528,0.444-16.741,3.367-23.63,8.412l57.801-147.474h85.259l57.799,147.466c-6.89-5.042-15.102-7.962-23.629-8.404
			C317.89,291.971,307.809,302.313,302.683,322.77z M247.987,64.588c1.559-2.984,4.646-4.854,8.012-4.854s6.454,1.87,8.012,4.854
			l27.928,71.254h-71.88L247.987,64.588z M136.533,363.892c0.031-4.762,0.821-9.488,2.342-14
			c7.079-22.633,27.85-40.854,40.325-40.854c12.212,0,15.625,24.346,16.571,38.838c0.329,5.287,0.496,10.65,0.496,16.017v131.041
			h-59.733V363.892z M213.333,494.933V374.663c-0.027-8.466,1.077-16.898,3.283-25.071c6.625-24.258,22.454-40.554,39.383-40.554
			s32.758,16.296,39.383,40.554c2.206,8.173,3.311,16.605,3.283,25.071v120.271H213.333z M315.733,494.933V363.892
			c0-5.367,0.167-10.729,0.496-15.996c0.946-14.512,4.358-38.858,16.571-38.858c12.496,0,33.267,18.221,40.363,40.963
			c1.503,4.504,2.281,9.218,2.304,13.967v130.967H315.733z"/>
		<circle style="fill:#428DFF;" cx="8.533" cy="128" r="8.533"/>
	</g>
</g>
<g>
</g>
<g>
</g>
<g>
</g>
<g>
</g>
<g>
</g>
<g>
</g>
<g>
</g>
<g>
</g>
<g>
</g>
<g>
</g>
<g>
</g>
<g>
</g>
<g>
</g>
<g>
</g>
<g>
</g>
</svg>
